<svg width="34" height="34" viewBox="0 0 34 34" fill="none" xmlns="http://www.w3.org/2000/svg">
<path d="M33.9463 13.0905C33.8158 12.6891 33.4666 12.3982 33.0482 12.3424L22.5597 10.9444L17.989 1.40128C17.8067 1.02057 17.4221 0.77832 17 0.77832C16.5778 0.77832 16.1933 1.02057 16.0109 1.40128L11.4402 10.9444L0.951784 12.3424C0.533359 12.3981 0.184129 12.6891 0.0537075 13.0905C-0.0767141 13.4918 0.0347817 13.9326 0.340516 14.2236L8.00411 21.5196L6.09261 31.9268C6.01638 32.342 6.18512 32.764 6.52664 33.0121C6.86804 33.2602 7.32153 33.2903 7.69293 33.0895L17.0001 28.0555L26.3072 33.0895C26.6783 33.2902 27.1319 33.2603 27.4735 33.0121C27.8151 32.764 27.9837 32.342 27.9076 31.9268L25.996 21.5197L33.6596 14.2237C33.9652 13.9327 34.0767 13.492 33.9463 13.0905Z" fill="black"/>
</svg>
