<svg width="26" height="26" viewBox="0 0 26 26" fill="none" xmlns="http://www.w3.org/2000/svg">
<g clip-path="url(#clip0_1_148)">
<path d="M14.847 20.0562C14.9785 19.9252 15.0886 19.7811 15.1851 19.6309L25.2627 9.55337C26.2453 8.56982 26.2462 6.97534 25.2627 5.99132C24.2791 5.0087 22.6851 5.00777 21.7006 5.99132L13.0226 14.6703L4.29844 5.94748C3.31488 4.96439 1.72087 4.96393 0.73685 5.94748C0.245774 6.43996 -0.000930084 7.084 2.63482e-06 7.72804C-0.000930084 8.37255 0.245774 9.01706 0.737783 9.50767L10.8592 19.6305C10.9557 19.7811 11.0667 19.9247 11.1992 20.0562C11.7019 20.559 12.3632 20.801 13.0226 20.7894C13.6811 20.8015 14.3443 20.559 14.847 20.0562Z" fill="black"/>
</g>
<defs>
<clipPath id="clip0_1_148">
<rect width="26" height="26" fill="white"/>
</clipPath>
</defs>
</svg>
