<svg width="35" height="35" viewBox="0 0 35 35" fill="none" xmlns="http://www.w3.org/2000/svg">
<g clip-path="url(#clip0_1_200)">
<path d="M34.9448 13.4756C34.8105 13.0624 34.4511 12.7629 34.0203 12.7055L23.2232 11.2663L18.5181 1.44258C18.3304 1.05061 17.9345 0.8013 17.5001 0.8013C17.0656 0.8013 16.6696 1.05068 16.482 1.44258L11.7767 11.2663L0.979779 12.7055C0.549047 12.7629 0.189545 13.0624 0.0552872 13.4756C-0.0789706 13.8888 0.0358048 14.3425 0.350531 14.6421L8.23948 22.1527L6.27175 32.8659C6.19334 33.2932 6.36704 33.7277 6.71855 33.9831C7.06992 34.2385 7.53681 34.2695 7.91908 34.0628L17.5 28.8808L27.0808 34.0628C27.2491 34.1538 27.4338 34.1987 27.6177 34.1987C27.8517 34.1987 28.0846 34.126 28.2814 33.9831C28.6329 33.7278 28.8067 33.2933 28.7282 32.8659L26.7604 22.1527L34.6495 14.6422C34.9642 14.3425 35.079 13.8888 34.9448 13.4756ZM24.7615 20.9384C24.4856 21.2011 24.3607 21.5853 24.4296 21.96L26.0818 30.9554L18.0371 26.6043C17.8695 26.5137 17.6848 26.4684 17.5001 26.4684C17.3153 26.4684 17.1304 26.5137 16.963 26.6043L8.91829 30.9554L10.5706 21.96C10.6394 21.5852 10.5146 21.2011 10.2387 20.9384L3.61449 14.632L12.6804 13.4237C13.0581 13.3733 13.3848 13.1359 13.5494 12.7923L17.5 4.54363L21.4508 12.7924C21.6154 13.1359 21.9421 13.3733 22.3199 13.4237L31.3858 14.6321L24.7615 20.9384Z" fill="black"/>
</g>
<defs>
<clipPath id="clip0_1_200">
<rect width="35" height="35" fill="white"/>
</clipPath>
</defs>
</svg>
